<?xml version="1.0" standalone="no"?>
<!DOCTYPE svg PUBLIC "-//W3C//DTD SVG 20010904//EN"
 "http://www.w3.org/TR/2001/REC-SVG-20010904/DTD/svg10.dtd">
<svg version="1.0" xmlns="http://www.w3.org/2000/svg"
 width="500.000000pt" height="500.000000pt" viewBox="0 0 500.000000 500.000000"
 preserveAspectRatio="xMidYMid meet">

<g transform="translate(0.000000,500.000000) scale(0.100000,-0.100000)"
fill="#000000" stroke="none">
<path d="M2213 3141 c-51 -24 -73 -63 -73 -130 0 -70 33 -106 125 -136 54 -17
70 -27 70 -41 0 -31 -42 -31 -57 1 -9 20 -17 25 -37 21 -14 -3 -45 -8 -69 -11
-41 -7 -43 -9 -37 -34 22 -89 131 -134 246 -100 75 23 116 97 98 177 -11 50
-45 77 -129 102 -69 21 -90 43 -54 57 14 5 28 -6 36 -29 2 -4 31 -3 66 4 54
10 62 14 62 34 0 12 -12 36 -26 53 -43 52 -144 66 -221 32z"/>
<path d="M1306 3133 c-3 -10 -28 -103 -56 -208 -28 -104 -52 -196 -55 -202 -3
-10 16 -13 75 -13 72 0 80 2 80 19 0 41 11 51 56 51 41 0 43 -1 50 -35 l6 -35
79 0 c44 0 79 1 79 3 0 1 -27 99 -58 217 l-58 215 -96 3 c-85 2 -97 1 -102
-15z m119 -200 c7 -52 6 -53 -19 -53 -30 0 -31 6 -15 81 13 60 23 52 34 -28z"/>
<path d="M1690 2931 l0 -221 80 0 80 0 0 65 0 65 53 0 c107 0 161 57 154 163
-2 37 -10 67 -24 85 -35 48 -67 57 -210 60 l-133 4 0 -221z m205 64 c0 -34 -3
-40 -22 -43 -21 -3 -23 1 -23 43 0 42 2 46 23 43 19 -3 22 -9 22 -43z"/>
<path d="M2560 2930 l0 -220 80 0 80 0 0 220 0 220 -80 0 -80 0 0 -220z"/>
<path d="M2810 3086 l0 -65 43 -3 42 -3 3 -152 3 -153 74 0 74 0 3 153 3 152
48 3 48 3 -3 62 -3 62 -167 3 -168 2 0 -64z"/>
<path d="M1210 2400 l0 -220 80 0 80 0 0 86 0 85 33 -3 32 -3 3 -82 3 -83 74
0 75 0 0 220 0 220 -75 0 -75 0 0 -75 0 -75 -35 0 -35 0 0 75 0 75 -80 0 -80
0 0 -220z"/>
<path d="M1681 2453 c4 -146 7 -172 24 -203 60 -103 266 -107 339 -7 19 26 21
46 24 203 l4 174 -81 0 -80 0 -3 -151 c-3 -129 -6 -153 -20 -162 -12 -8 -21
-7 -32 2 -13 11 -16 39 -16 162 l0 149 -81 0 -81 0 3 -167z"/>
<path d="M2160 2400 l0 -220 130 0 c154 0 200 13 224 65 29 60 15 113 -36 145
-18 11 -27 20 -20 20 7 0 24 11 37 25 19 18 25 35 25 70 0 88 -56 115 -242
115 l-118 0 0 -220z m198 108 c18 -18 14 -46 -7 -58 -29 -15 -31 -13 -31 30 0
41 14 52 38 28z m0 -160 c17 -17 15 -55 -4 -62 -29 -11 -34 -6 -34 34 0 41 14
52 38 28z"/>
</g>
</svg>
